# xmcd CD database file
#
# Track frame offsets:
#	150
#	18222
#	35262
#	57522
#	77812
#	97445
#	113722
#	131662
#	148597
#	167485
#	183032
#
# Disc length: 2679 seconds
#
# Revision: 0
# Processed by: cddbd v1.5.1PL2 Copyright (c) Steve Scherf et al.
# Submitted via: CDex 1.51
#
DISCID=8e0a750b
DTITLE=Frédéric Sylvestre - Valse(S) Caprices
DYEAR=2004
DGENRE=Jazz
TTITLE0=Jeannette
TTITLE1=Ballad For Friends
TTITLE2=Valse Caprice
TTITLE3=Recto Verso
TTITLE4=Indifférence
TTITLE5=Flambée Montalbanaise
TTITLE6=Passion
TTITLE7=Two Lonely People
TTITLE8=Sa Préférée
TTITLE9=Sagitario
TTITLE10=With A Song In My Heart
EXTD=YEAR: 2004
EXTT0=
EXTT1=
EXTT2=
EXTT3=
EXTT4=
EXTT5=
EXTT6=
EXTT7=
EXTT8=
EXTT9=
EXTT10=
PLAYORDER=
